<?xml version="1.0" standalone="no"?>
<!DOCTYPE svg PUBLIC "-//W3C//DTD SVG 20010904//EN"
 "http://www.w3.org/TR/2001/REC-SVG-20010904/DTD/svg10.dtd">
<svg version="1.0" xmlns="http://www.w3.org/2000/svg"
 width="233.000000pt" height="233.000000pt" viewBox="0 0 233.000000 233.000000"
 preserveAspectRatio="xMidYMid meet">

<g transform="translate(0.000000,233.000000) scale(0.100000,-0.100000)"
fill="#000000" stroke="none">
<path d="M0 1165 l0 -1165 1165 0 1165 0 0 1165 0 1165 -1165 0 -1165 0 0
-1165z m1523 695 l327 -195 0 -360 c0 -198 -3 -376 -6 -395 -6 -34 -13 -39
-341 -220 -184 -102 -340 -184 -346 -182 -7 2 -159 91 -338 198 l-326 195 4
322 c2 177 6 354 9 392 l5 71 337 187 c185 103 340 186 343 184 3 -1 153 -90
332 -197z m-841 -1470 c25 -30 23 -91 -3 -124 -17 -22 -28 -26 -70 -26 l-49 0
0 91 0 92 52 -5 c38 -4 57 -12 70 -28z m558 5 c15 -13 20 -31 20 -67 0 -66
-23 -88 -90 -88 l-50 0 0 83 c0 46 3 87 8 91 12 13 92 -1 112 -19z m210 -4 c0
-11 6 -22 13 -25 10 -5 10 -7 0 -12 -8 -3 -13 -24 -13 -49 0 -26 5 -45 13 -48
6 -2 9 -8 5 -12 -18 -19 -38 6 -38 48 0 24 -6 49 -12 56 -10 11 -10 14 0 18 6
3 12 13 12 24 0 10 5 19 10 19 6 0 10 -9 10 -19z m-636 -37 c9 -8 16 -24 16
-35 0 -16 -7 -19 -45 -19 -48 0 -58 -12 -25 -30 14 -8 26 -8 41 0 26 14 36 6
19 -15 -31 -37 -100 -5 -100 47 0 54 60 87 94 52z m130 0 c9 -8 16 -24 16 -35
0 -16 -7 -19 -45 -19 -47 0 -56 -9 -30 -30 12 -10 21 -10 42 -1 32 15 45 4 19
-15 -43 -31 -96 -4 -96 49 0 57 58 88 94 51z m131 0 c20 -20 19 -78 -2 -99 -9
-10 -26 -15 -39 -12 -19 3 -24 -1 -26 -22 -2 -14 -7 -25 -13 -24 -10 3 -19
137 -11 159 6 17 73 15 91 -2z m303 4 c5 -7 12 -36 13 -64 l4 -51 -47 -1 c-39
-1 -50 3 -59 20 -10 18 -8 25 11 40 12 10 31 18 41 18 10 0 19 4 19 9 0 17
-19 22 -41 11 -27 -15 -39 -2 -15 16 24 17 60 18 74 2z m200 0 c7 -7 12 -35
12 -63 l0 -52 -46 1 c-58 1 -78 24 -50 55 11 12 30 21 43 21 12 0 23 5 23 10
0 17 -29 23 -45 10 -20 -17 -32 -5 -15 15 15 18 61 20 78 3z m122 -3 c18 -21
6 -29 -19 -13 -16 10 -23 10 -32 1 -10 -10 -8 -14 7 -18 51 -17 64 -26 64 -44
0 -38 -65 -55 -94 -25 -23 22 -9 39 15 18 10 -9 25 -14 34 -11 21 9 19 27 -3
27 -20 0 -62 27 -62 40 0 34 67 52 90 25z"/>
<path d="M1045 1884 c-44 -25 -81 -47 -82 -48 -2 -2 154 -99 169 -104 4 -2 8
42 8 97 0 56 -3 101 -7 101 -5 0 -44 -21 -88 -46z"/>
<path d="M1228 1833 c-2 -54 -3 -99 -3 -100 2 -5 174 92 175 97 0 4 -138 88
-161 98 -4 2 -9 -41 -11 -95z"/>
<path d="M826 1763 c-27 -14 -45 -28 -40 -33 5 -5 84 -54 176 -108 179 -107
178 -107 178 -34 0 37 -2 38 -133 118 l-133 81 -48 -24z"/>
<path d="M1353 1702 l-133 -77 0 -47 c0 -27 2 -48 5 -48 6 0 301 167 329 186
17 11 15 14 -23 38 -22 14 -42 26 -43 25 -2 0 -63 -35 -135 -77z"/>
<path d="M682 1683 c-24 -14 -40 -29 -35 -33 4 -4 114 -71 243 -149 l235 -141
5 47 c3 27 4 53 2 58 -3 10 -393 246 -402 244 -3 -1 -24 -12 -48 -26z"/>
<path d="M1415 1590 l-190 -108 -3 -61 c-2 -34 -1 -61 1 -61 6 0 457 250 481
266 17 12 15 15 -30 43 -27 17 -53 30 -59 30 -5 0 -95 -49 -200 -109z"/>
<path d="M592 1524 l3 -58 240 -144 c132 -79 252 -150 268 -158 l27 -15 0 54
0 54 -247 148 c-137 82 -258 155 -271 163 l-23 15 3 -59z"/>
<path d="M1500 1415 c-140 -79 -263 -150 -272 -159 -18 -16 -23 -96 -7 -96 8
0 517 287 537 302 13 11 17 99 5 97 -5 -1 -123 -65 -263 -144z"/>
<path d="M587 1368 c-4 -29 -5 -53 -4 -53 29 -21 531 -315 538 -315 5 0 9 22
9 50 l0 49 -262 157 c-145 86 -266 158 -269 160 -4 2 -9 -20 -12 -48z"/>
<path d="M1520 1280 c-348 -200 -310 -171 -310 -230 0 -27 3 -50 7 -50 4 0
128 66 275 148 l267 147 1 58 c0 31 -3 57 -7 56 -5 0 -109 -58 -233 -129z"/>
<path d="M580 1155 l0 -54 268 -160 267 -159 3 45 c2 25 1 51 -2 58 -4 11
-516 325 -530 325 -3 0 -6 -25 -6 -55z"/>
<path d="M1504 1057 c-138 -78 -261 -149 -273 -157 -19 -13 -22 -23 -19 -66
l3 -51 273 155 272 154 0 54 c0 30 -1 54 -2 53 -2 0 -116 -65 -254 -142z"/>
<path d="M582 999 l3 -53 265 -158 265 -158 3 41 c2 23 1 47 -1 54 -4 8 -408
255 -530 322 -4 3 -7 -19 -5 -48z"/>
<path d="M1485 890 c-143 -82 -264 -151 -268 -152 -5 -2 -7 -27 -5 -56 l3 -53
273 152 272 151 0 54 c0 30 -3 54 -7 53 -5 0 -125 -67 -268 -149z"/>
<path d="M580 325 c0 -63 1 -65 26 -65 47 0 64 17 64 63 0 52 -13 67 -57 67
l-33 0 0 -65z"/>
<path d="M1144 376 c-3 -7 -4 -35 -2 -62 3 -47 4 -49 35 -52 23 -2 35 3 47 20
20 29 21 72 0 92 -19 20 -73 21 -80 2z"/>
<path d="M754 335 c-18 -13 -16 -14 20 -15 33 0 37 2 26 15 -15 19 -21 19 -46
0z"/>
<path d="M884 335 c-18 -13 -16 -14 20 -15 33 0 37 2 26 15 -15 19 -21 19 -46
0z"/>
<path d="M1022 338 c-17 -17 -15 -53 4 -68 12 -11 18 -10 31 3 13 13 15 23 7
44 -11 31 -25 38 -42 21z"/>
<path d="M1332 292 c-13 -2 -21 -9 -19 -15 5 -17 21 -19 41 -4 22 16 11 25
-22 19z"/>
<path d="M1533 292 c-13 -2 -23 -10 -23 -18 0 -16 18 -18 39 -5 20 13 10 27
-16 23z"/>
</g>
</svg>
